<?xml version="1.0" standalone="yes"?>
<svg xmlns="http://www.w3.org/2000/svg" width="800" height="650">
<path style="fill:#ffffff; stroke:none;" d="M0 0L0 650L800 650L800 0L0 0z"/>
<path style="fill:#444444; stroke:none;" d="M72 74C62.0226 74 32.2107 70.6118 26.7536 80.1461C21.3957 89.5071 25 102.807 25 113L25 190L25 477L25 564C25 573.118 21.8073 589.911 27.1703 597.73C31.7318 604.38 44.0729 602 51 602L117 602L283 602C306.589 602 330.427 599.471 354 601.115C362.254 601.69 370.104 601.864 376.99 606.962C384.297 612.372 389.733 622.745 400 622.748C411.343 622.751 416.679 610.808 425.01 605.297C431.459 601.033 440.526 601.636 448 601.115C471.174 599.499 494.77 602 518 602L683 602L749 602C756.479 602 768.267 604.251 773.047 596.909C778.204 588.987 775 572.164 775 563L775 477L775 191L775 113C775 102.841 778.568 89.4354 773.598 80.0314C767.674 68.8217 738.914 74 728 74C728 63.3928 732.42 39.5698 724.506 31.4615C717.673 24.4603 699.019 28 690 28C658.153 28 626.722 28.6449 595 31.1114C550.243 34.5914 505.516 44.4832 463 58.6667C448.768 63.4146 434.767 69.0473 421 75.0027C414.66 77.7453 408.047 82.6319 401 83.0455C392.606 83.5383 385.332 77.7717 378 74.5781C363.281 68.1664 348.222 62.7404 333 57.6667C270.944 36.9819 207.511 33.3842 143 28.8853C129.062 27.9133 114.892 29.0816 101 27.8036C93.2788 27.0934 82.9553 25.5059 76.3958 30.9204C67.386 38.3576 72 63.3773 72 74z"/>
<path style="fill:#ffffff; stroke:none;" d="M410 582C430.79 577.005 450.312 563.378 471 556.674C517.945 541.461 568.786 531.714 618 528.114C639.336 526.553 660.588 525 682 525C687.631 525 701.949 527.562 706.155 523.283C710.878 518.479 708 502.35 708 496L708 419L708 146L708 76C708 69.5927 710.613 55.5571 706.283 50.4091C702.555 45.9776 694.035 47.9839 689 47.9992C672.954 48.0481 657.02 49 641 49C582.794 49 517.611 59.8642 463 80.193C450.52 84.8385 438.258 89.9457 426 95.144C420.975 97.275 414.114 98.9823 411.285 104.126C406.374 113.056 410 131.924 410 142L410 237L410 582M390 583L390 231L390 139C390 129.713 393.544 111.011 388.155 103.145C384.87 98.3493 378.081 96.6977 373 94.5676C360.774 89.4424 348.484 84.6741 336 80.2221C281.485 60.7812 217.901 49.9605 160 49.0104C143.31 48.7366 126.676 48 110 48C106.133 48 95.824 46.2136 93.2644 49.8447C90.3663 53.9558 93.8554 65.8478 93.3043 71C90.6863 95.4726 93 121.382 93 146L93 417L93 496C93 502.187 90.105 518.67 94.7173 523.283C98.9993 527.565 113.312 525 119 525C140.296 525 161.829 525.941 183 528.305C227.957 533.325 272.643 539.589 316 553.035C341.746 561.019 365.312 572.525 390 583M46 95L46 582L336 582C325.062 571.56 300.451 568.975 286 565.658C241.434 555.429 194.823 546.763 149 546.01C132.309 545.736 115.723 545 99 545C92.146 545 83.0407 546.54 77.2348 542.079C69.0925 535.824 72 520.991 72 512L72 431L72 95L46 95M728 95L728 431L728 513C728.001 522.022 731.169 535.832 722.847 542.27C716.614 547.092 705.406 545 698 545C679.453 545 660.543 545.171 642 546.059C600.189 548.064 558.679 555.04 518 564.867C500.416 569.115 479.928 572.158 464 581C472.01 583.994 483.484 582 492 582L551 582L754 582L754 95L728 95z"/>
<path style="fill:#1133aa; stroke:none;" d="M170 184L170 434L334 434L334 404L203 404L203 312L334 312L334 282L203 282L203 214L334 214L334 184L170 184z"/>
<path style="fill:#aa1133; stroke:none;" d="M514 184L514 211L567 211L567 346C567 363.121 570.14 386.956 555.93 399.733C536.401 417.292 505.025 407.197 483 402C483 408.693 479.781 426.845 484.15 432.047C488.589 437.334 507.495 436.779 514 437.024C544.623 438.177 577.777 433.769 593.164 403C604.008 381.315 600 353.456 600 330L600 184L514 184z"/>
</svg>
